<svg width="32" height="32" viewBox="0 0 32 32" fill="none" xmlns="http://www.w3.org/2000/svg">
<path d="M4 5.71919C4 4.77025 4.79444 4 5.77375 4H26.2262C27.2059 4 28 4.77025 28 5.71919V26.2811C28 27.2303 27.2059 28 26.2262 28H5.77375C4.79453 28 4 27.2304 4 26.2814V5.71891V5.71919Z" fill="#006699"/>
<path d="M11.2933 24.085V13.2801H7.70192V24.085H11.2937H11.2933ZM9.49836 11.8051C10.7505 11.8051 11.53 10.9754 11.53 9.93856C11.5066 8.87806 10.7505 8.07153 9.52217 8.07153C8.29302 8.07153 7.49023 8.87806 7.49023 9.93847C7.49023 10.9753 8.26948 11.805 9.47483 11.805H9.49808L9.49836 11.8051ZM13.2812 24.085H16.8723V18.0517C16.8723 17.7292 16.8957 17.4058 16.9906 17.1755C17.2501 16.53 17.841 15.8619 18.8333 15.8619C20.1325 15.8619 20.6525 16.8526 20.6525 18.3053V24.085H24.2435V17.8898C24.2435 14.5711 22.472 13.0268 20.1093 13.0268C18.1721 13.0268 17.3213 14.1095 16.8486 14.8469H16.8725V13.2805H13.2814C13.3282 14.2941 13.2811 24.0853 13.2811 24.0853L13.2812 24.085Z" fill="white"/>
</svg>
