<svg width="110" height="63" viewBox="0 0 110 63" fill="none" xmlns="http://www.w3.org/2000/svg">
<path d="M19.732 22.5249H15.5V0.317251H21.7326C25.9262 0.317251 28.0422 2.15731 28.0422 5.8057V7.99474C28.0422 11.6431 25.9262 13.4832 21.7326 13.4832H19.732V22.5249ZM19.732 3.48977V10.3107H21.7326C23.1176 10.3107 23.8101 9.73962 23.8101 8.21681V5.58363C23.8101 4.06082 23.1176 3.48977 21.7326 3.48977H19.732Z" fill="#141414"/>
<path d="M34.5351 22.5249H30.303V0.317251H36.5741C40.9216 0.317251 42.8452 1.96696 42.8452 5.425V6.78918C42.8452 9.10512 41.9219 10.5645 40.0752 11.1673V11.2307C41.9603 11.7066 42.8837 13.2928 42.8837 15.926V19.8282C42.8837 21.0338 43.0376 21.9221 43.3454 22.5249H39.0364C38.7671 21.8904 38.6517 20.9703 38.6517 19.7965V15.7357C38.6517 13.7053 37.9592 13.0073 35.997 13.0073H34.5351V22.5249ZM34.5351 3.48977V9.8348H36.074C37.7668 9.8348 38.6132 9.16857 38.6132 7.48713V5.77398C38.6132 4.25117 37.8822 3.48977 36.4587 3.48977H34.5351Z" fill="#141414"/>
<path d="M45.5122 17.2585V5.58363C45.5122 2.03041 47.7821 0 51.9371 0C56.0922 0 58.3621 2.03041 58.3621 5.58363V17.2585C58.3621 20.8117 56.0922 22.8421 51.9371 22.8421C47.7821 22.8421 45.5122 20.8117 45.5122 17.2585ZM54.1301 17.4806V5.36155C54.1301 3.90219 53.3991 3.17252 51.9371 3.17252C50.4752 3.17252 49.7442 3.90219 49.7442 5.36155V17.4806C49.7442 18.9399 50.4752 19.6696 51.9371 19.6696C53.3991 19.6696 54.1301 18.9399 54.1301 17.4806Z" fill="#141414"/>
<path d="M65.4562 22.5249H61.2241V0.317251H72.4198V3.48977H65.4562V9.67617H70.9193V12.8487H65.4562V22.5249Z" fill="#141414"/>
<path d="M78.6812 22.5249H74.4492V0.317251H78.6812V22.5249Z" fill="#141414"/>
<path d="M89.3914 22.5249H85.1594V3.48977H80.735V0.317251H93.8158V3.48977H89.3914V22.5249Z" fill="#141414"/>
<path d="M3.82915 48.6303H0V26.4227H6.18248L9.09422 42.5391L12.006 26.4227H18.1884V48.6303H14.0402V31.816L10.7695 48.6303H7.09988L3.82915 31.816V48.6303Z" fill="#141414"/>
<path d="M35.3034 48.6303H30.9158L30.158 44.284H25.0923L24.3345 48.6303H20.266L24.8131 26.4227H30.7563L35.3034 48.6303ZM27.6052 30.0711L25.6507 41.2701H29.5995L27.6052 30.0711Z" fill="#141414"/>
<path d="M42.981 48.9476C38.7131 48.9476 36.5193 46.9489 36.5193 43.3639V42.0949H40.6675V43.6177C40.6675 45.0454 41.4254 45.7751 42.9411 45.7751C44.4967 45.7751 45.2545 45.0454 45.2545 43.5543C45.2545 42.6343 44.9753 41.8411 44.4169 41.1432C43.8984 40.4452 42.9012 39.5887 41.4254 38.5735C39.6305 37.3044 38.3541 36.1623 37.5962 35.1154C36.8783 34.0685 36.5193 32.9264 36.5193 31.6256C36.5193 28.1042 38.7929 26.1055 43.0608 26.1055C47.2489 26.1055 49.4427 28.1042 49.4427 31.6891V32.6091H45.2944V31.467C45.2944 30.0077 44.5765 29.278 43.1006 29.278C41.6248 29.278 40.867 29.9759 40.867 31.4036C40.867 32.1967 41.1462 32.9581 41.7046 33.6243C42.263 34.2906 43.2602 35.1471 44.736 36.1623C46.5708 37.4313 47.8472 38.6052 48.5253 39.6521C49.2432 40.699 49.6022 41.9046 49.6022 43.3005C49.6022 46.9489 47.2888 48.9476 42.981 48.9476Z" fill="#141414"/>
<path d="M59.8578 48.6303H55.4703V29.5952H50.8833V26.4227H64.4448V29.5952H59.8578V48.6303Z" fill="#141414"/>
<path d="M78.5352 48.6303H66.5691V26.4227H78.5352V29.5952H70.9567V35.4644H76.9796V38.6369H70.9567V45.4578H78.5352V48.6303Z" fill="#141414"/>
<path d="M85.2911 48.6303H80.9035V26.4227H87.4051C91.9123 26.4227 93.9066 28.0724 93.9066 31.5305V32.8946C93.9066 35.2106 92.9494 36.6699 91.0348 37.2727V37.3362C92.9892 37.812 93.9465 39.3983 93.9465 42.0315V45.9337C93.9465 47.1392 94.1061 48.0275 94.4252 48.6303H89.9578C89.6786 47.9958 89.559 47.0758 89.559 45.902V41.8411C89.559 39.8107 88.841 39.1128 86.8068 39.1128H85.2911V48.6303ZM85.2911 29.5952V35.9403H86.8865C88.6416 35.9403 89.5191 35.274 89.5191 33.5926V31.8794C89.5191 30.3566 88.7612 29.5952 87.2854 29.5952H85.2911Z" fill="#141414"/>
<path d="M102.695 48.9476C98.4266 48.9476 96.2329 46.9489 96.2329 43.3639V42.0949H100.381V43.6177C100.381 45.0454 101.139 45.7751 102.655 45.7751C104.21 45.7751 104.968 45.0454 104.968 43.5543C104.968 42.6343 104.689 41.8411 104.13 41.1432C103.612 40.4452 102.615 39.5887 101.139 38.5735C99.344 37.3044 98.0677 36.1623 97.3098 35.1154C96.5918 34.0685 96.2329 32.9264 96.2329 31.6256C96.2329 28.1042 98.5064 26.1055 102.774 26.1055C106.962 26.1055 109.156 28.1042 109.156 31.6891V32.6091H105.008V31.467C105.008 30.0077 104.29 29.278 102.814 29.278C101.338 29.278 100.581 29.9759 100.581 31.4036C100.581 32.1967 100.86 32.9581 101.418 33.6243C101.977 34.2906 102.974 35.1471 104.45 36.1623C106.284 37.4313 107.561 38.6052 108.239 39.6521C108.957 40.699 109.316 41.9046 109.316 43.3005C109.316 46.9489 107.002 48.9476 102.695 48.9476Z" fill="#141414"/>
<path d="M14.7163 60.9397C14.39 60.9397 14.0832 60.8788 13.7961 60.757C13.5089 60.6308 13.2587 60.4567 13.0455 60.2348C12.8323 60.0086 12.6648 59.7476 12.543 59.4517C12.4255 59.1558 12.3668 58.836 12.3668 58.4923C12.3668 58.1486 12.4255 57.831 12.543 57.5395C12.6648 57.2436 12.8323 56.9847 13.0455 56.7628C13.2587 56.541 13.5089 56.3691 13.7961 56.2473C14.0832 56.1211 14.39 56.058 14.7163 56.058C15.1296 56.058 15.5038 56.1428 15.8388 56.3125C16.1782 56.4822 16.4566 56.7193 16.6742 57.0239C16.8917 57.3285 17.0266 57.6809 17.0788 58.0812H16.0281C15.9933 57.8549 15.9128 57.657 15.7866 57.4873C15.6648 57.3176 15.5125 57.1849 15.3297 57.0892C15.1514 56.9934 14.9512 56.9456 14.7293 56.9456C14.5248 56.9456 14.3399 56.9826 14.1746 57.0565C14.0136 57.1305 13.8722 57.2371 13.7504 57.3763C13.6329 57.5156 13.5415 57.6809 13.4763 57.8723C13.4154 58.0594 13.3849 58.2661 13.3849 58.4923C13.3849 58.7229 13.4154 58.9339 13.4763 59.1254C13.5415 59.3125 13.6329 59.4756 13.7504 59.6148C13.8722 59.7541 14.0136 59.8628 14.1746 59.9412C14.3399 60.0151 14.5248 60.0521 14.7293 60.0521C14.9512 60.0521 15.1535 60.0043 15.3363 59.9085C15.519 59.8085 15.6691 59.6736 15.7866 59.5039C15.9084 59.3299 15.9889 59.1319 16.0281 58.91H17.0788C17.0222 59.3146 16.8852 59.6692 16.6676 59.9738C16.4501 60.2784 16.1738 60.5155 15.8388 60.6852C15.5038 60.8548 15.1296 60.9397 14.7163 60.9397ZM19.8925 60.9397C19.5531 60.9397 19.2377 60.8788 18.9462 60.757C18.659 60.6351 18.4067 60.4654 18.1891 60.2479C17.9716 60.026 17.8019 59.7671 17.6801 59.4713C17.5583 59.1711 17.4974 58.8447 17.4974 58.4923C17.4974 58.1399 17.5583 57.8158 17.6801 57.5199C17.8019 57.224 17.9716 56.9673 18.1891 56.7498C18.4067 56.5323 18.659 56.3626 18.9462 56.2407C19.2377 56.1189 19.5531 56.058 19.8925 56.058C20.2319 56.058 20.5473 56.1189 20.8388 56.2407C21.1303 56.3626 21.3849 56.5323 21.6024 56.7498C21.8243 56.9673 21.9962 57.224 22.118 57.5199C22.2398 57.8158 22.3007 58.1399 22.3007 58.4923C22.3007 58.8447 22.2398 59.1711 22.118 59.4713C21.9962 59.7671 21.8243 60.026 21.6024 60.2479C21.3849 60.4654 21.1303 60.6351 20.8388 60.757C20.5473 60.8788 20.2319 60.9397 19.8925 60.9397ZM19.8925 60.0521C20.1057 60.0521 20.2971 60.013 20.4668 59.9346C20.6409 59.852 20.7866 59.7388 20.9041 59.5953C21.0259 59.4517 21.1173 59.2864 21.1782 59.0993C21.2435 58.9078 21.2761 58.7055 21.2761 58.4923C21.2761 58.2791 21.2435 58.079 21.1782 57.8919C21.1173 57.7048 21.0259 57.5417 20.9041 57.4024C20.7866 57.2588 20.6409 57.1479 20.4668 57.0696C20.2971 56.9869 20.1057 56.9456 19.8925 56.9456C19.6793 56.9456 19.4879 56.9869 19.3182 57.0696C19.1485 57.1479 19.0028 57.2588 18.8809 57.4024C18.7635 57.5417 18.6721 57.7048 18.6068 57.8919C18.5459 58.079 18.5155 58.2791 18.5155 58.4923C18.5155 58.7055 18.5459 58.9078 18.6068 59.0993C18.6721 59.2864 18.7635 59.4517 18.8809 59.5953C19.0028 59.7388 19.1485 59.852 19.3182 59.9346C19.4879 60.013 19.6793 60.0521 19.8925 60.0521ZM26.0392 60.8418L23.892 57.5721V60.8418H22.9849V56.1559H24.0552L26.0979 59.2624V56.1559H27.0116V60.8418H26.0392ZM31.5712 59.3864C31.5712 59.6823 31.4951 59.9455 31.3428 60.1761C31.1905 60.4024 30.973 60.5807 30.6901 60.7113C30.4117 60.8418 30.0745 60.9071 29.6786 60.9071C29.287 60.9071 28.9454 60.8418 28.6539 60.7113C28.3668 60.5764 28.1405 60.3871 27.9752 60.1435C27.8099 59.8998 27.7141 59.6127 27.688 59.282H28.6931C28.7061 59.5431 28.7932 59.7497 28.9541 59.902C29.1195 60.0543 29.3544 60.1304 29.659 60.1304C29.8287 60.1304 29.9766 60.1065 30.1028 60.0586C30.2333 60.0108 30.3355 59.9412 30.4095 59.8498C30.4835 59.7584 30.5205 59.6518 30.5205 59.53C30.5205 59.3821 30.4661 59.2646 30.3573 59.1776C30.2485 59.0862 30.0941 59.021 29.8939 58.9818L29.1238 58.8317C28.9454 58.8012 28.7801 58.7512 28.6278 58.6816C28.4755 58.612 28.3428 58.525 28.2297 58.4205C28.1166 58.3161 28.0274 58.1899 27.9621 58.042C27.8969 57.8941 27.8643 57.7244 27.8643 57.533C27.8643 57.2545 27.9382 57.0065 28.0861 56.789C28.2384 56.5714 28.4451 56.4017 28.7061 56.2799C28.9715 56.1581 29.2739 56.0972 29.6133 56.0972C29.9657 56.0972 30.279 56.1624 30.5531 56.293C30.8272 56.4235 31.0491 56.6084 31.2188 56.8477C31.3885 57.0826 31.482 57.3633 31.4994 57.6896H30.4944C30.4857 57.5243 30.4421 57.3807 30.3638 57.2588C30.2899 57.1327 30.1898 57.037 30.0636 56.9717C29.9374 56.9021 29.7917 56.8673 29.6264 56.8673C29.4654 56.8673 29.3283 56.8956 29.2152 56.9521C29.1064 57.0043 29.0216 57.0761 28.9607 57.1675C28.8998 57.2545 28.8693 57.3546 28.8693 57.4677C28.8693 57.5721 28.8976 57.6591 28.9541 57.7287C29.0151 57.7984 29.0934 57.8549 29.1891 57.8984C29.2848 57.9376 29.3892 57.968 29.5024 57.9898L30.3051 58.153C30.7184 58.2356 31.0317 58.377 31.2449 58.5772C31.4624 58.773 31.5712 59.0427 31.5712 59.3864ZM36.1467 56.1559V59.0601C36.1467 59.4299 36.0706 59.7563 35.9183 60.0391C35.7704 60.3219 35.5528 60.5438 35.2657 60.7047C34.9785 60.8614 34.6304 60.9397 34.2214 60.9397C33.8081 60.9397 33.4579 60.8614 33.1707 60.7047C32.8835 60.5438 32.6638 60.3219 32.5115 60.0391C32.3636 59.7563 32.2897 59.4299 32.2897 59.0601V56.1559H33.2817V59.0797C33.2817 59.2711 33.3143 59.4408 33.3795 59.5887C33.4448 59.7367 33.5449 59.852 33.6798 59.9346C33.819 60.013 33.9995 60.0521 34.2214 60.0521C34.439 60.0521 34.6152 60.013 34.7501 59.9346C34.8893 59.852 34.9915 59.7367 35.0568 59.5887C35.1221 59.4408 35.1547 59.2711 35.1547 59.0797V56.1559H36.1467ZM40.1237 60.8418H37.0955V56.1559H38.0875V59.9477H40.1237V60.8418ZM42.3452 60.8418H41.3532V57.05H39.8783V56.1559H43.8267V57.05H42.3452V60.8418ZM45.4105 60.8418H44.4185V56.1559H45.4105V60.8418ZM49.423 60.8418L47.2759 57.5721V60.8418H46.3687V56.1559H47.439L49.4818 59.2624V56.1559H50.3954V60.8418H49.423ZM53.4997 60.9397C53.1603 60.9397 52.8427 60.881 52.5468 60.7635C52.2553 60.6417 51.9986 60.472 51.7767 60.2544C51.5592 60.0369 51.3895 59.778 51.2677 59.4778C51.1458 59.1732 51.0849 58.8404 51.0849 58.4793C51.0849 58.1312 51.1437 57.8114 51.2611 57.5199C51.3786 57.2284 51.544 56.9717 51.7571 56.7498C51.9703 56.5279 52.2205 56.3582 52.5077 56.2407C52.7992 56.1189 53.1168 56.058 53.4605 56.058C53.8564 56.058 54.211 56.132 54.5243 56.2799C54.8419 56.4235 55.1073 56.6236 55.3205 56.8803C55.5381 57.137 55.699 57.4372 55.8035 57.781H54.6352C54.5874 57.62 54.5091 57.4786 54.4003 57.3567C54.2915 57.2306 54.1567 57.1305 53.9957 57.0565C53.8347 56.9826 53.6476 56.9456 53.4344 56.9456C53.1821 56.9456 52.9536 57.0065 52.7491 57.1283C52.549 57.2458 52.3902 57.422 52.2727 57.657C52.1596 57.8876 52.103 58.1704 52.103 58.5054C52.103 58.8056 52.1574 59.0753 52.2662 59.3146C52.375 59.5539 52.536 59.7454 52.7491 59.889C52.9667 60.0282 53.2321 60.0978 53.5454 60.0978C53.776 60.0978 53.9761 60.0565 54.1458 59.9738C54.3198 59.8868 54.4612 59.7693 54.57 59.6214C54.6831 59.4691 54.7614 59.2972 54.8049 59.1058H53.4475V58.3161H55.8622C55.8796 58.699 55.8361 59.0514 55.7317 59.3734C55.6272 59.691 55.4706 59.9673 55.2618 60.2022C55.0573 60.4372 54.8049 60.6199 54.5047 60.7504C54.2089 60.8766 53.8738 60.9397 53.4997 60.9397ZM60.4755 58.5772H61.3044C61.3044 58.7468 61.2804 58.9231 61.2326 59.1058C61.1847 59.2885 61.1216 59.4647 61.0433 59.6344C60.9694 59.7998 60.8802 59.9499 60.7757 60.0847C60.5626 60.3545 60.3276 60.559 60.0709 60.6982C59.8186 60.8331 59.551 60.9005 59.2682 60.9005C58.9419 60.9005 58.659 60.8418 58.4197 60.7243C58.1804 60.6068 57.9934 60.4415 57.8585 60.2283C57.728 60.0108 57.6627 59.7563 57.6627 59.4647C57.6627 59.2733 57.7062 59.0949 57.7932 58.9296C57.8802 58.7599 58.0021 58.6098 58.1587 58.4793C58.3153 58.3444 58.5002 58.2334 58.7134 58.1464L59.1964 58.7142C59.0659 58.7403 58.9484 58.786 58.844 58.8513C58.7439 58.9122 58.6656 58.9905 58.609 59.0862C58.5568 59.1819 58.5307 59.2907 58.5307 59.4125C58.5307 59.5518 58.559 59.6779 58.6155 59.7911C58.6764 59.9042 58.7678 59.9956 58.8896 60.0652C59.0115 60.1304 59.1594 60.1631 59.3334 60.1631C59.5336 60.1631 59.7163 60.113 59.8816 60.013C60.047 59.9085 60.1775 59.765 60.2732 59.5822C60.3341 59.4734 60.382 59.3277 60.4168 59.145C60.4516 58.9579 60.4712 58.7686 60.4755 58.5772ZM59.5749 58.2835L61.9505 60.8418H60.8345L58.6612 58.525C58.5611 58.4162 58.4785 58.3118 58.4132 58.2117C58.3523 58.1073 58.3044 58.0007 58.2696 57.8919C58.2348 57.7788 58.2174 57.6613 58.2174 57.5395C58.2174 57.3132 58.2762 57.1131 58.3936 56.9391C58.5155 56.7607 58.6808 56.6214 58.8896 56.5214C59.0985 56.417 59.3334 56.3647 59.5945 56.3647C59.8599 56.3647 60.0905 56.4148 60.2863 56.5148C60.4864 56.6149 60.643 56.7541 60.7562 56.9325C60.8693 57.1109 60.9259 57.3198 60.9259 57.5591H60.084C60.0753 57.4546 60.0492 57.3698 60.0056 57.3045C59.9621 57.2349 59.9034 57.1827 59.8294 57.1479C59.7598 57.1087 59.6815 57.0892 59.5945 57.0892C59.5118 57.0892 59.4357 57.1087 59.3661 57.1479C59.2964 57.1827 59.2421 57.2349 59.2029 57.3045C59.1681 57.3741 59.1507 57.4546 59.1507 57.546C59.1507 57.6243 59.1659 57.7005 59.1964 57.7744C59.2268 57.8484 59.2725 57.9267 59.3334 58.0094C59.3987 58.0877 59.4792 58.1791 59.5749 58.2835ZM64.6481 59.0471H66.7235L66.9845 59.8367H64.3609L64.6481 59.0471ZM66.9388 60.8418L65.6858 57.2393L64.4066 60.8418H63.4081L65.1702 56.1559H66.2536L68.0026 60.8418H66.9388ZM70.3748 60.9397C70.0485 60.9397 69.7417 60.8788 69.4546 60.757C69.1674 60.6308 68.9172 60.4567 68.7041 60.2348C68.4909 60.0086 68.3233 59.7476 68.2015 59.4517C68.0841 59.1558 68.0253 58.836 68.0253 58.4923C68.0253 58.1486 68.0841 57.831 68.2015 57.5395C68.3233 57.2436 68.4909 56.9847 68.7041 56.7628C68.9172 56.541 69.1674 56.3691 69.4546 56.2473C69.7417 56.1211 70.0485 56.058 70.3748 56.058C70.7881 56.058 71.1623 56.1428 71.4973 56.3125C71.8367 56.4822 72.1151 56.7193 72.3327 57.0239C72.5502 57.3285 72.6851 57.6809 72.7373 58.0812H71.6866C71.6518 57.8549 71.5713 57.657 71.4451 57.4873C71.3233 57.3176 71.171 57.1849 70.9883 57.0892C70.8099 56.9934 70.6097 56.9456 70.3878 56.9456C70.1833 56.9456 69.9984 56.9826 69.8331 57.0565C69.6721 57.1305 69.5307 57.2371 69.4089 57.3763C69.2914 57.5156 69.2001 57.6809 69.1348 57.8723C69.0739 58.0594 69.0434 58.2661 69.0434 58.4923C69.0434 58.7229 69.0739 58.9339 69.1348 59.1254C69.2001 59.3125 69.2914 59.4756 69.4089 59.6148C69.5307 59.7541 69.6721 59.8628 69.8331 59.9412C69.9984 60.0151 70.1833 60.0521 70.3878 60.0521C70.6097 60.0521 70.8121 60.0043 70.9948 59.9085C71.1775 59.8085 71.3276 59.6736 71.4451 59.5039C71.5669 59.3299 71.6474 59.1319 71.6866 58.91H72.7373C72.6808 59.3146 72.5437 59.6692 72.3262 59.9738C72.1086 60.2784 71.8323 60.5155 71.4973 60.6852C71.1623 60.8548 70.7881 60.9397 70.3748 60.9397ZM74.0233 59.0471H76.0987L76.3597 59.8367H73.7361L74.0233 59.0471ZM76.314 60.8418L75.061 57.2393L73.7818 60.8418H72.7833L74.5454 56.1559H75.6288L77.3778 60.8418H76.314ZM79.6129 60.8418H77.9487V56.1559H79.6129C80.1089 56.1559 80.5353 56.2538 80.892 56.4496C81.2488 56.6454 81.5229 56.9173 81.7144 57.2654C81.9058 57.6134 82.0015 58.0159 82.0015 58.4727C82.0015 58.9252 81.9036 59.332 81.7078 59.6932C81.512 60.0499 81.2336 60.3306 80.8725 60.5351C80.5157 60.7396 80.0958 60.8418 79.6129 60.8418ZM78.9407 57.0108V59.9868H79.5607C79.8739 59.9868 80.135 59.9281 80.3438 59.8106C80.557 59.6932 80.7158 59.5213 80.8203 59.2951C80.929 59.0688 80.9834 58.7947 80.9834 58.4727C80.9834 58.1595 80.929 57.8941 80.8203 57.6765C80.7158 57.459 80.557 57.2937 80.3438 57.1805C80.135 57.0674 79.8739 57.0108 79.5607 57.0108H78.9407ZM85.8427 59.9803V60.8418H82.6905V56.1559H85.797V57.0174H83.6825V58.0028H85.6012V58.8578H83.6825V59.9803H85.8427ZM88.7376 60.8418L87.5107 57.7287V60.8418H86.6101V56.1559H87.7979L89.1553 59.6279L90.5193 56.1559H91.7071V60.8418H90.8065V57.7026L89.5665 60.8418H88.7376ZM94.8707 59.0797V60.8418H93.8787V59.0797L92.221 56.1559H93.2913L94.4073 58.1725L95.5429 56.1559H96.5414L94.8707 59.0797Z" fill="#141414"/>
</svg>
