<svg width="32" height="32" viewBox="0 0 32 32" fill="none" xmlns="http://www.w3.org/2000/svg">
<path d="M26.9022 9.1623C26.1905 9.46628 25.4423 9.67796 24.6762 9.7921C25.0344 9.73115 25.5614 9.09119 25.7713 8.83216C26.09 8.44144 26.3329 7.99539 26.4877 7.51669C26.4877 7.48114 26.5235 7.43035 26.4877 7.40495C26.4696 7.39517 26.4494 7.39005 26.4288 7.39005C26.4082 7.39005 26.388 7.39517 26.37 7.40495C25.538 7.85212 24.6526 8.19341 23.7346 8.42076C23.7026 8.43046 23.6686 8.43133 23.6361 8.42328C23.6037 8.41522 23.574 8.39855 23.5504 8.37505C23.4789 8.2906 23.402 8.21086 23.3201 8.13633C22.9457 7.80338 22.5209 7.53087 22.0613 7.32877C21.4409 7.07612 20.7707 6.96671 20.1014 7.00879C19.452 7.0495 18.818 7.22238 18.2388 7.51669C17.6684 7.82698 17.1671 8.24852 16.765 8.75597C16.3421 9.27828 16.0367 9.88442 15.8695 10.5336C15.7316 11.1512 15.716 11.7894 15.8234 12.4129C15.8234 12.5195 15.8234 12.5348 15.7313 12.5195C12.0828 11.9862 9.08923 10.7012 6.64322 7.94333C6.53576 7.82143 6.47947 7.82143 6.39248 7.94333C5.3281 9.5483 5.84494 12.0878 7.1754 13.3423C7.35451 13.5099 7.53872 13.6725 7.73318 13.8248C7.12317 13.7819 6.52805 13.6178 5.9831 13.3423C5.88076 13.2763 5.82447 13.3119 5.81935 13.4338C5.80484 13.6028 5.80484 13.7727 5.81935 13.9417C5.92612 14.7516 6.2477 15.5188 6.75119 16.1649C7.25468 16.811 7.92202 17.3127 8.68497 17.6189C8.87096 17.6979 9.06476 17.7575 9.26322 17.7966C8.6985 17.907 8.11931 17.9242 7.54896 17.8474C7.42615 17.822 7.38009 17.8881 7.42615 18.0049C8.17837 20.0365 9.81075 20.6561 11.0082 21.0015C11.1719 21.0269 11.3357 21.0269 11.5199 21.0675C11.5199 21.0675 11.5199 21.0675 11.4892 21.098C11.1361 21.738 9.70841 22.1697 9.05341 22.3932C7.85787 22.8194 6.5832 22.9823 5.31787 22.8706C5.1183 22.8401 5.07224 22.8452 5.02107 22.8706C4.9699 22.896 5.02107 22.9519 5.07736 23.0027C5.33322 23.1703 5.58908 23.3176 5.85517 23.4598C6.64733 23.8886 7.48481 24.2293 8.35236 24.4756C12.8452 25.7047 17.901 24.8006 21.2732 21.4739C23.924 18.8632 24.8553 15.2622 24.8553 11.6561C24.8553 11.519 25.0241 11.4377 25.1214 11.3666C25.792 10.848 26.3832 10.2355 26.8766 9.5483C26.962 9.44587 27.0058 9.31544 26.9994 9.18261C26.9994 9.10643 26.9994 9.12166 26.9022 9.1623Z" fill="#33CCFF"/>
</svg>
