<svg width="40" height="32" viewBox="0 0 40 32" fill="none" xmlns="http://www.w3.org/2000/svg">
<g clip-path="url(#clip0_182_6360)">
<path d="M23.2286 0C21.9829 0 20.7796 0.159804 19.6278 0.43719C18.4579 0.163863 17.2461 0.00437879 15.9948 0.00437879C7.17561 0.00437879 0 7.18023 0 16C0 24.8198 7.17617 31.9956 15.9956 31.9956C17.2468 31.9956 18.4599 31.8374 19.6286 31.5628C20.7816 31.8402 21.9865 32 23.2294 32C32.0518 32 39.229 24.8226 39.229 16.0004C39.229 7.17813 32.0516 0.0007525 23.2294 0.0007525L23.2286 0ZM2.80172 15.9996C2.80172 8.72562 8.72106 2.80604 15.9953 2.80604C23.2695 2.80604 29.1889 8.72538 29.1889 15.9996C29.1889 23.2739 23.2695 29.1932 15.9953 29.1932C8.72106 29.1932 2.80172 23.2739 2.80172 15.9996ZM25.2436 29.0275C29.3191 26.1244 31.991 21.3722 31.991 15.9996C31.991 10.627 29.3194 5.87467 25.2436 2.97336C31.5648 3.94719 36.4261 9.40963 36.4261 15.9996C36.4261 22.5896 31.5645 28.0524 25.2436 29.0275Z" fill="#00C753"/>
<path d="M20.3143 14.6437H11.9603C12.1551 14.1828 12.445 13.775 12.8009 13.4347C12.9522 13.289 13.1133 13.1545 13.2828 13.041C13.3235 13.0128 13.3682 12.9934 13.4088 12.9681C13.553 12.8799 13.7003 12.8014 13.8516 12.7354C13.9132 12.7073 13.9777 12.6835 14.0421 12.6598C14.1906 12.605 14.3404 12.5603 14.4946 12.5253C14.5493 12.5128 14.6025 12.4971 14.6572 12.4875C15.7821 12.287 16.9871 12.6163 17.8558 13.4851C18.4037 14.033 19.2906 14.033 19.8369 13.4851C20.3848 12.9372 20.3848 12.0503 19.8369 11.5039C18.9444 10.6102 17.8489 10.051 16.6987 9.79614L16.6984 6.62856C16.6984 5.85518 16.0708 5.22754 15.2974 5.22754C14.524 5.22754 13.8964 5.85518 13.8964 6.62856V9.78925C13.7087 9.83116 13.532 9.89996 13.3513 9.95875C13.183 10.0119 13.0107 10.0469 12.8468 10.1157C12.6408 10.2011 12.4531 10.319 12.2583 10.4253C12.0819 10.5207 11.8996 10.5992 11.7317 10.7124C11.5159 10.8566 11.3267 11.0333 11.1306 11.2028C11.0086 11.3079 10.8742 11.3904 10.7578 11.5067C10.7509 11.5136 10.7494 11.5221 10.7425 11.5293C9.59075 12.6907 8.87646 14.2865 8.87646 16.0476C8.87646 16.821 9.50411 17.4486 10.2774 17.4486H18.6315C18.4367 17.9096 18.1468 18.3174 17.7909 18.6576C17.6383 18.8034 17.4769 18.9378 17.3074 19.0514C17.2724 19.0767 17.2317 19.0933 17.1955 19.1158C17.0469 19.2084 16.8915 19.2897 16.7333 19.3597C16.6773 19.3835 16.6185 19.4044 16.561 19.427C16.4011 19.4858 16.2401 19.5333 16.0762 19.5711C16.0328 19.5808 15.9893 19.5936 15.9446 19.6005C14.8153 19.805 13.6076 19.4745 12.7375 18.6057C12.1896 18.0578 11.3027 18.0578 10.7551 18.6057C10.2088 19.1536 10.2088 20.0405 10.7551 20.5868C11.6476 21.4806 12.7431 22.0397 13.8933 22.2962V25.23C13.8933 26.0046 14.521 26.631 15.2943 26.631C16.0677 26.631 16.6954 26.0046 16.6954 25.23V22.3031C16.848 22.2694 16.9909 22.2106 17.1394 22.1643C17.344 22.1027 17.5529 22.0564 17.753 21.9723C17.9269 21.901 18.0823 21.8 18.249 21.7118C18.4563 21.6039 18.6693 21.5072 18.8669 21.3768C19.0421 21.2577 19.1934 21.1119 19.3573 20.9762C19.5171 20.8458 19.6866 20.7351 19.8351 20.5869C19.842 20.58 19.8448 20.5687 19.852 20.5603C21.0022 19.4004 21.7152 17.8058 21.7152 16.0461C21.7152 15.2714 21.0888 14.6438 20.3142 14.6438L20.3143 14.6437Z" fill="#00C753"/>
</g>
<defs>
<clipPath id="clip0_182_6360">
<rect width="40" height="32" fill="white"/>
</clipPath>
</defs>
</svg>
