<svg width="31" height="30" viewBox="0 0 31 30" fill="none" xmlns="http://www.w3.org/2000/svg">
<path d="M15.7331 29.6441C16.6317 29.6441 17.1302 29.0492 17.1302 27.9404V18.7215C17.1302 14.9152 21.3189 9.3888 25.2185 6.83531L26.5841 8.69937C27.258 9.63003 28.0771 9.4217 28.4127 8.37727L30.4357 2.46572C30.7248 1.59948 30.2591 0.988176 29.377 1.00462L23.1173 1.10057C22.0407 1.11702 21.5914 1.82426 22.2489 2.73985L23.5501 4.52167C19.7779 7.17248 16.2303 11.8957 15.7482 14.3203H15.7003C15.2195 11.8792 11.687 7.17248 7.91612 4.52167L9.18311 2.88376C9.87345 1.98463 9.44062 1.2623 8.36539 1.21296L2.12081 0.940204C1.22227 0.892231 0.7415 1.48709 1.01544 2.36978L2.86046 8.3293C3.18235 9.3888 3.98364 9.63003 4.69041 8.71445L6.16561 6.78734C10.0501 9.27641 14.336 14.8659 14.336 18.7215V27.9404C14.336 29.0492 14.8332 29.6441 15.7331 29.6441V29.6441Z" fill="#00C753"/>
</svg>
