<svg width="44" height="44" viewBox="0 0 44 44" fill="none" xmlns="http://www.w3.org/2000/svg">
<g clip-path="url(#clip0_182_6347)">
<path d="M16.3429 13.907C17.7748 15.3389 17.7748 17.6605 16.3429 19.0924C14.911 20.5243 12.5894 20.5243 11.1574 19.0924C9.72552 17.6605 9.72552 15.3389 11.1574 13.907C12.5894 12.475 14.911 12.475 16.3429 13.907Z" stroke="#00C753" stroke-width="2.4" stroke-linecap="round" stroke-linejoin="round"/>
<path d="M32.5742 12.3424C34.3641 14.1323 34.3641 17.0343 32.5742 18.8242C30.7843 20.6141 27.8823 20.6141 26.0924 18.8242C24.3025 17.0343 24.3025 14.1323 26.0924 12.3424C27.8823 10.5525 30.7843 10.5525 32.5742 12.3424Z" stroke="#00C753" stroke-width="2.4" stroke-linecap="round" stroke-linejoin="round"/>
<path d="M37.5835 33.0003V31.167C37.5835 28.1292 35.1213 25.667 32.0835 25.667H26.5835C23.5457 25.667 21.0835 28.1292 21.0835 31.167V33.0003" stroke="#00C753" stroke-width="2.4" stroke-linecap="round" stroke-linejoin="round"/>
<path d="M15.5832 25.667H11.9165C8.87867 25.667 6.4165 28.1292 6.4165 31.167V33.0003" stroke="#00C753" stroke-width="2.4" stroke-linecap="round" stroke-linejoin="round"/>
</g>
<defs>
<clipPath id="clip0_182_6347">
<rect width="44" height="44" fill="white"/>
</clipPath>
</defs>
</svg>
