<svg width="122" height="41" viewBox="0 0 122 41" fill="none" xmlns="http://www.w3.org/2000/svg">
<mask id="mask0_182_6256" style="mask-type:alpha" maskUnits="userSpaceOnUse" x="-1" y="7" width="123" height="27">
<path d="M16.8224 7.478C16.3963 7.35625 15.9701 7.25478 15.544 7.17361L15.4222 7.15332L13.7988 19.1057L15.4831 18.091V18.0301L16.9036 7.51859L16.8224 7.478Z" fill="#5876B8"/>
<path d="M18.1007 7.94467L17.9586 7.88379L16.6599 17.3807L18.3442 16.3661V16.3052L19.3994 8.55345L19.3385 8.51286C18.953 8.30993 18.5268 8.10701 18.1007 7.94467Z" fill="#5876B8"/>
<path d="M21.794 10.2583C21.4084 9.91337 21.0026 9.58868 20.5764 9.30459L20.4141 9.20312L19.5415 15.6562L21.2461 14.6415V14.5807L21.8346 10.3192L21.794 10.2583Z" fill="#5876B8"/>
<path d="M5.68215 9.26465L5.60098 9.32552C5.23572 9.56903 4.89074 9.85313 4.56606 10.1372L4.4646 10.2184L12.7237 18.9442L12.9875 16.9758L12.9469 16.9352L5.68215 9.26465Z" fill="#008CCE"/>
<path d="M8.056 7.96582L7.97483 8.00641C7.54869 8.18904 7.14284 8.39197 6.73699 8.61519L6.61523 8.69635L13.19 15.6364L13.4538 13.6883L13.4132 13.6477L8.056 7.96582Z" fill="#008CCE"/>
<path d="M13.8597 10.2383L10.897 7.11328H10.8361C10.3288 7.19445 9.82151 7.3162 9.33449 7.47855L9.15186 7.53943L13.6162 12.2676L13.88 10.2789L13.8597 10.2383Z" fill="#008CCE"/>
<path d="M26.0148 17.8271C25.9336 17.3806 25.8322 16.9139 25.7104 16.4877L25.6698 16.3457L17.4919 21.2565L19.3183 21.9465L19.3589 21.9262L26.0148 17.9285V17.8271Z" fill="#009F7A"/>
<path d="M25.2641 15.1893C25.1017 14.7835 24.9191 14.3776 24.7162 13.9921L24.6553 13.8906L14.3467 20.0393L16.1933 20.7495L16.2339 20.7292L25.2844 15.2908L25.2641 15.1893Z" fill="#009F7A"/>
<path d="M26.1974 19.2676L26.1771 19.085L20.6169 22.4129L22.4636 23.1232L22.5041 23.1029L26.1771 20.891V20.8301C26.1771 20.6069 26.1974 20.3837 26.1974 20.1605C26.2177 19.8561 26.2177 19.572 26.1974 19.2676Z" fill="#009F7A"/>
<path d="M8.13696 28.6835L8.15726 28.7444L9.47627 32.8435L9.53715 32.8638C10.0242 33.0058 10.5315 33.1073 11.0388 33.2088L11.2214 33.2291L9.23276 27.0195L8.13696 28.6835Z" fill="#009F7A"/>
<path d="M12.9261 21.4004L11.8303 23.0441L11.8506 23.105L15.0974 33.2107L15.1989 33.1904C15.6453 33.1295 16.0715 33.028 16.4773 32.9063L16.5991 32.8657L12.9261 21.4004Z" fill="#009F7A"/>
<path d="M10.0044 25.8646L10.0247 25.9255L12.4192 33.3526H12.5004C12.7033 33.3526 12.9062 33.3729 13.1092 33.3729C13.373 33.3729 13.6165 33.3729 13.86 33.3526H14.002L11.0799 24.2412L10.0044 25.8646Z" fill="#009F7A"/>
<path d="M3.38893 21.5615L3.34835 21.6021L0.974121 25.1939L0.994414 25.2548C1.19734 25.7418 1.42056 26.1882 1.68436 26.655L1.78582 26.8173L5.35731 21.3789L3.38893 21.5615Z" fill="#5876B8"/>
<path d="M10.0652 20.9736L10.0449 21.0142L4.22095 29.8618L4.30212 29.9227C4.6268 30.2271 4.97177 30.4909 5.31674 30.7547L5.41821 30.8358L12.0336 20.791L10.0652 20.9736Z" fill="#5876B8"/>
<path d="M6.73707 21.2576L6.71678 21.2982L2.43506 27.8121L2.47564 27.873C2.73945 28.2383 3.02354 28.6035 3.32793 28.9485L3.42939 29.05L8.68516 21.0547L6.73707 21.2576Z" fill="#5876B8"/>
<path d="M10.5722 18.2744H10.5113L0.0200485 19.2079V19.3093C-0.000244064 19.5731 -0.000244141 19.8572 -0.000244141 20.1413C-0.000244141 20.3037 -0.000244064 20.466 0.0200485 20.6284V20.7501L11.9521 19.6949L10.5722 18.2744Z" fill="#009F7A"/>
<path d="M5.94591 13.3633H5.88503L1.6236 13.7488L1.6033 13.8097C1.35979 14.2562 1.13658 14.7229 0.953944 15.2099L0.893066 15.3925L7.34609 14.8244L5.94591 13.3633Z" fill="#009F7A"/>
<path d="M8.27939 15.8398H8.21852L0.487063 16.5298L0.46677 16.611C0.345015 17.0574 0.243553 17.5038 0.162382 17.9706L0.14209 18.1126L9.6187 17.2603L8.27939 15.8398Z" fill="#009F7A"/>
<path d="M13.9612 21.0742L14.57 22.9614L14.6308 22.9817L24.493 26.7156L24.5336 26.6344C24.7568 26.2488 24.9394 25.8633 25.1221 25.4574L25.1627 25.3357L13.9612 21.0742Z" fill="#008CCE"/>
<path d="M15.6048 26.1484L15.6657 26.1687L22.9304 28.9285L22.9913 28.8676C23.2957 28.5226 23.5798 28.1574 23.8436 27.7921L23.9247 27.6703L15.0366 24.3018L15.6048 26.1484Z" fill="#008CCE"/>
<path d="M16.6398 29.3948L16.7007 29.4151L20.6983 30.937L20.7592 30.8965C21.1853 30.5921 21.5912 30.2674 21.9564 29.9224L22.0985 29.8007L16.031 27.4873L16.6398 29.3948Z" fill="#008CCE"/>
<path d="M40.8896 25.5997C40.0982 25.7824 39.2459 25.9447 38.4342 25.9447C34.9439 25.9447 32.5291 24.1995 32.5291 20.5672C32.5291 16.8739 34.7815 14.8041 38.4342 14.8244C39.1444 14.8244 40.0779 14.9664 40.8693 15.2708L40.7069 17.0971C39.8952 16.6304 39.1444 16.5289 38.3733 16.5289C36.1614 16.5289 34.7612 18.2335 34.7612 20.4251C34.7612 22.6167 36.1208 24.2604 38.4139 24.2604C39.2662 24.2604 40.2605 24.0778 40.7678 23.814L40.8896 25.5997Z" fill="#878589"/>
<path d="M42.3909 14.9854H48.3772V16.6899H44.5622V19.3483H48.1945V21.0325H44.5622V25.7607H42.3909V14.9854Z" fill="#878589"/>
<path d="M51.8878 15.0078H54.3229L58.5438 25.7832H56.1492L55.2158 23.3075H50.8529L49.9194 25.7832H47.6873L51.8878 15.0078ZM53.0851 17.1588H53.0445L51.482 21.6029H54.6273L53.0851 17.1588Z" fill="#878589"/>
<path d="M65.1183 15.0078H62.9673V25.7832H65.1183V15.0078Z" fill="#878589"/>
<path d="M67.4116 17.8291H69.38V18.9046H69.4003C70.0496 17.9915 70.9222 17.6465 72.018 17.6465C73.9052 17.6465 74.7169 18.9655 74.7169 20.7715V25.7838H72.6471V21.5427C72.6471 20.5686 72.6268 19.2496 71.3078 19.2496C69.8061 19.2496 69.4815 20.873 69.4815 21.8876V25.7838H67.4116V17.8291Z" fill="#878589"/>
<path d="M81.6366 19.4917C81.0075 19.2685 80.5408 19.1467 79.79 19.1467C79.2421 19.1467 78.5724 19.3497 78.5724 20.0193C78.5724 21.2775 82.1642 20.486 82.1642 23.3473C82.1642 25.1939 80.5205 25.9447 78.8362 25.9447C78.0448 25.9447 77.2534 25.8027 76.4823 25.5998L76.604 23.8952C77.2534 24.2199 77.9231 24.4228 78.6333 24.4228C79.1609 24.4228 79.9929 24.2199 79.9929 23.4488C79.9929 21.8862 76.4011 22.9617 76.4011 20.0802C76.4011 18.3756 77.9028 17.6045 79.5262 17.6045C80.5002 17.6045 81.1293 17.7668 81.7786 17.8886L81.6366 19.4917Z" fill="#878589"/>
<path d="M84.2138 19.3506H82.6919V17.8287H84.2138V16.2458L86.2837 15.5762V17.8287H88.1303V19.3506H86.304V23.0438C86.304 23.7135 86.4866 24.3629 87.278 24.3629C87.6433 24.3629 88.0085 24.2817 88.2115 24.1396L88.2723 25.7833C87.8462 25.9051 87.3592 25.966 86.7504 25.966C85.127 25.966 84.2341 24.9716 84.2341 23.3888L84.2138 19.3506Z" fill="#878589"/>
<path d="M89.8147 17.8271H91.8845V25.7818H89.8147V17.8271ZM89.8147 14.418H91.8845V16.3863H89.8147V14.418Z" fill="#878589"/>
<path d="M94.5022 19.3506H92.9802V17.8287H94.5022V16.2458L96.572 15.5762V17.8287H98.3983V19.3303H96.572V23.0236C96.572 23.6932 96.7546 24.3426 97.546 24.3426C97.9113 24.3426 98.2766 24.2614 98.4795 24.1194L98.5404 25.7631C98.1142 25.8848 97.6272 25.9457 97.0184 25.9457C95.395 25.9457 94.5022 24.9514 94.5022 23.3685V19.3506Z" fill="#878589"/>
<path d="M107.124 25.7818H105.156V24.7063H105.115C104.486 25.4775 103.593 25.9645 102.518 25.9645C100.631 25.9645 99.8188 24.6455 99.8188 22.8394V17.8271H101.889V22.0683C101.889 23.0423 101.909 24.3614 103.228 24.3614C104.73 24.3614 105.054 22.738 105.054 21.7233V17.8271H107.124V25.7818Z" fill="#878589"/>
<path d="M109.62 19.3506H108.098V17.8287H109.62V16.2458L111.69 15.5762V17.8287H113.537V19.3506H111.71V23.0438C111.71 23.7135 111.893 24.3629 112.684 24.3629C113.05 24.3629 113.415 24.2817 113.618 24.1396L113.679 25.7833C113.253 25.9051 112.766 25.966 112.157 25.966C110.533 25.966 109.641 24.9716 109.641 23.3888L109.62 19.3506Z" fill="#878589"/>
<path d="M121.146 25.3374C120.395 25.7635 119.523 25.9664 118.407 25.9664C115.789 25.9664 114.267 24.4445 114.267 21.8471C114.267 19.554 115.485 17.6465 117.96 17.6465C120.903 17.6465 121.735 19.6757 121.735 22.4558H116.235C116.337 23.7343 117.23 24.4648 118.508 24.4648C119.503 24.4648 120.375 24.0995 121.146 23.6531V25.3374ZM119.766 21.0353C119.705 20.041 119.239 19.1684 118.082 19.1684C116.925 19.1684 116.337 19.9598 116.235 21.0353H119.766Z" fill="#878589"/>
</mask>
<g mask="url(#mask0_182_6256)">
<rect x="-20.769" y="-7.50293" width="163.846" height="56.1538" fill="#707070"/>
</g>
</svg>
