<svg enable-background="new 0 0 300 88" viewBox="0 0 300 88" xmlns="http://www.w3.org/2000/svg"><g fill="#003f6b"><path d="m108.6 30.2v14.4c1.3-1.3 2.7-2.3 4.3-3 1.5-.7 3.2-1 4.9-1 3.8 0 7 1.4 9.6 4.3s4 6.5 4 11c0 4.3-1.4 7.9-4.1 10.8s-6 4.3-9.7 4.3c-1.7 0-3.2-.3-4.7-.9-1.4-.6-2.9-1.6-4.3-2.9v3.1h-7.2v-40.1zm7.7 17.2c-2.3 0-4.2.8-5.7 2.3-1.5 1.6-2.3 3.6-2.3 6.1 0 2.6.8 4.7 2.3 6.2 1.5 1.6 3.4 2.4 5.7 2.4 2.2 0 4.1-.8 5.6-2.4s2.3-3.7 2.3-6.2-.7-4.5-2.2-6.1c-1.6-1.5-3.5-2.3-5.7-2.3z"/><path d="m140.2 29.5c1.3 0 2.4.5 3.3 1.4s1.4 2 1.4 3.4c0 1.3-.4 2.4-1.4 3.3-.9.9-2 1.4-3.2 1.4-1.3 0-2.4-.5-3.3-1.4s-1.4-2.1-1.4-3.4.5-2.4 1.4-3.3c.8-.9 1.9-1.4 3.2-1.4zm-3.6 11.9h7.3v28.9h-7.3z"/><path d="m151.3 30.8h7.3v10.7h4.3v6.3h-4.3v22.7h-7.3v-22.8h-3.7v-6.3h3.7z"/><path d="m174 30.2v14.4c1.3-1.3 2.7-2.3 4.3-3 1.5-.7 3.2-1 4.9-1 3.8 0 7 1.4 9.6 4.3s4 6.5 4 11c0 4.3-1.4 7.9-4.1 10.8s-6 4.3-9.7 4.3c-1.7 0-3.2-.3-4.7-.9-1.4-.6-2.9-1.6-4.3-2.9v3.1h-7.2v-40.1zm7.6 17.2c-2.3 0-4.2.8-5.7 2.3-1.5 1.6-2.3 3.6-2.3 6.1 0 2.6.8 4.7 2.3 6.2 1.5 1.6 3.4 2.4 5.7 2.4 2.2 0 4.1-.8 5.6-2.4s2.3-3.7 2.3-6.2-.7-4.5-2.2-6.1c-1.5-1.5-3.4-2.3-5.7-2.3z"/><path d="m224.1 41.4h7.3v28.9h-7.3v-3.1c-1.4 1.3-2.8 2.3-4.3 2.9-1.4.6-3 .9-4.6.9-3.7 0-7-1.4-9.7-4.3s-4.1-6.5-4.1-10.8c0-4.5 1.3-8.1 4-11 2.6-2.9 5.8-4.3 9.6-4.3 1.7 0 3.4.3 4.9 1s2.9 1.6 4.2 3zm-7.6 6c-2.2 0-4.1.8-5.6 2.4s-2.2 3.6-2.2 6.1.8 4.6 2.3 6.2 3.4 2.4 5.6 2.4c2.3 0 4.2-.8 5.7-2.4s2.3-3.7 2.3-6.2-.7-4.6-2.3-6.1c-1.6-1.6-3.5-2.4-5.8-2.4z"/><path d="m238.7 41.4h7.3v3c1.6-1.4 3.1-2.4 4.5-2.9 1.3-.5 2.7-.8 4.1-.8 2.9 0 5.3 1 7.3 3 1.7 1.7 2.5 4.2 2.5 7.6v19.1h-7.2v-12.7c0-3.5-.2-5.8-.5-6.9s-.9-2-1.6-2.6c-.8-.6-1.7-.9-2.9-.9-1.5 0-2.7.5-3.8 1.5s-1.8 2.3-2.2 4.1c-.2.9-.3 2.9-.3 5.9v11.6h-7.3v-29z"/><path d="m271.4 30.2h7.3v23.1l10.7-11.9h9.1l-12.5 13.9 14 15.1h-9l-12.3-13.4v13.3h-7.3z"/></g><path d="m37.7 35.1c-8.4 0-15.2 6.8-15.2 15.2s6.8 15.2 15.2 15.2 15.2-6.8 15.2-15.2c-.1-8.4-6.9-15.2-15.2-15.2z" fill="#2eaa8f"/><path d="m37.7 12.6c-5.4 0-10.5 1.1-15.2 3.2v12.9c4.3-3 9.5-4.8 15.2-4.8 14.6 0 26.4 11.9 26.4 26.4 0 14.6-11.8 26.4-26.4 26.4s-26.4-11.8-26.4-26.4v-26.8-23.5h-11.3v50.3c0 20.8 16.9 37.7 37.7 37.7s37.7-16.9 37.7-37.7c-.1-20.8-16.9-37.7-37.7-37.7z" fill="#003f6b"/></svg>