<?xml version="1.0" encoding="utf-8"?>
<!-- Generator: Adobe Illustrator 16.0.0, SVG Export Plug-In . SVG Version: 6.00 Build 0)  -->
<!DOCTYPE svg PUBLIC "-//W3C//DTD SVG 1.1//EN" "http://www.w3.org/Graphics/SVG/1.1/DTD/svg11.dtd">
<svg version="1.1" id="Layer_1" xmlns="http://www.w3.org/2000/svg" xmlns:xlink="http://www.w3.org/1999/xlink" x="0px" y="0px"
	 width="983.891px" height="220.273px" viewBox="0 0 983.891 220.273" enable-background="new 0 0 983.891 220.273"
	 xml:space="preserve">
<polygon fill="#3F43AD" points="93.435,89.9 186.86,143.846 186.86,125.854 93.435,71.928 "/>
<polygon fill="#3F43AD" points="93.435,53.936 186.86,107.873 186.86,89.882 93.435,35.955 "/>
<polygon fill="#3F43AD" points="93.435,17.972 186.86,71.918 186.86,53.936 93.435,0 "/>
<polygon fill="#3F43AD" points="140.156,134.864 46.739,188.809 62.298,197.799 155.734,143.854 "/>
<polygon fill="#3F43AD" points="171.31,152.846 77.894,206.782 93.435,215.764 186.86,161.828 "/>
<polygon fill="#3F43AD" points="109.012,116.881 15.585,170.828 31.163,179.809 124.587,125.874 "/>
<polygon fill="#3F43AD" points="77.857,116.881 77.857,8.982 62.28,17.972 62.28,125.874 "/>
<polygon fill="#3F43AD" points="15.568,152.846 15.568,44.945 0,53.936 0,161.828 "/>
<polygon fill="#3F43AD" points="46.721,134.864 46.721,26.963 31.144,35.955 31.144,143.854 "/>
<g>
	<path fill="#3F43AD" d="M324.196,154.039c-1.793,4.219-4.262,7.907-7.41,11.059c-3.147,3.143-6.836,5.611-11.053,7.404
		c-4.227,1.786-8.772,2.681-13.637,2.681h-1.503c-3.727,0-7.3-0.574-10.735-1.713c-3.435-1.147-6.085-2.715-7.945-4.728v43.379
		c0,2.714-0.86,4.755-2.576,6.111c-1.718,1.366-3.582,2.041-5.584,2.041c-2.004,0-3.863-0.675-5.581-2.041
		c-1.721-1.356-2.579-3.397-2.579-6.111V77.056c0-2.714,0.857-4.719,2.579-6.012c1.718-1.284,3.576-1.932,5.581-1.932
		c1.858,0,3.575,0.538,5.156,1.613c1.571,1.074,2.5,2.687,2.787,4.828c1.576-1.567,4.007-3.034,7.301-4.401
		c3.292-1.356,7.015-2.041,11.168-2.041h1.932c4.723,0,9.196,0.902,13.417,2.688c4.221,1.795,7.913,4.264,11.059,7.407
		c3.147,3.151,5.652,6.84,7.516,11.059c1.858,4.227,2.792,8.699,2.792,13.417v36.929C326.88,145.34,325.983,149.812,324.196,154.039
		z M310.56,103.682c0-5.009-1.789-9.3-5.365-12.881c-3.58-3.58-7.948-5.365-13.099-5.365h-1.932c-4.87,0-9.126,1.504-12.775,4.51
		c-3.654,3.006-5.477,7.159-5.477,12.452v39.936c0,5.009,1.823,9.019,5.477,12.024c3.649,3.006,7.905,4.509,12.775,4.509h1.932
		c5.151,0,9.519-1.785,13.099-5.365c3.576-3.58,5.365-7.871,5.365-12.891V103.682z"/>
	<path fill="#3F43AD" d="M433.058,172.613c-1.363,1.713-3.331,2.569-5.908,2.569c-0.715,0-1.216-0.073-1.504-0.21
		c-3.72-0.575-6.727-1.613-9.017-3.115c-2.291-1.503-4.154-3.252-5.58-5.256c-3.152,2.715-6.696,4.828-10.631,6.33
		c-3.94,1.503-8.125,2.251-12.561,2.251h-1.932c-4.295,0-8.516-0.674-12.667-2.032c-4.152-1.366-7.838-3.334-11.058-5.912
		c-3.219-2.578-5.833-5.793-7.838-9.656c-2.002-3.871-3.006-8.307-3.006-13.317v-2.578c0.289-5.584,1.681-10.193,4.186-13.846
		c2.505-3.653,5.616-6.586,9.341-8.8c3.723-2.223,7.803-3.872,12.238-4.946c4.437-1.066,8.622-1.995,12.563-2.788
		c3.936-0.783,7.37-1.467,10.307-2.041c2.934-0.573,4.833-1.502,5.689-2.787c0.287-0.428,0.464-1.001,0.537-1.722
		c0.069-0.711,0.11-1.357,0.11-1.931c0-6.44-1.722-10.95-5.157-13.527c-3.434-2.579-7.514-3.863-12.238-3.863h-1.502
		c-4.436,0-7.944,0.894-10.522,2.679c-2.578,1.793-4.869,4.481-6.869,8.053c-0.86,1.575-1.936,2.687-3.224,3.333
		c-1.284,0.638-2.65,0.966-4.077,0.966c-2.008,0-3.868-0.683-5.584-2.04c-1.717-1.357-2.578-3.188-2.578-5.475
		c0-1.43,0.286-2.725,0.861-3.872c1.717-3.863,3.826-7.079,6.336-9.657c2.499-2.578,5.184-4.618,8.048-6.121
		c2.864-1.503,5.798-2.578,8.804-3.224c3.005-0.638,5.94-0.967,8.804-0.967h1.502c4.724,0,9.161,0.866,13.313,2.578
		c4.15,1.722,7.73,4.082,10.736,7.088c3.007,3.005,5.371,6.513,7.086,10.521c1.718,4.007,2.574,8.298,2.574,12.881v49.818
		c0,4.155,1.858,6.513,5.584,7.087c2.431,0.429,4.185,1.393,5.26,2.897c1.074,1.501,1.612,3.114,1.612,4.826
		C435.098,168.959,434.416,170.891,433.058,172.613z M406.327,123.651c-4.013,1.146-8.234,2.04-12.671,2.686
		c-4.438,0.647-8.554,1.503-12.348,2.578c-3.793,1.076-6.979,2.615-9.551,4.619c-2.578,2.003-3.94,4.865-4.082,8.581v1.721
		c0,4.583,1.681,8.236,5.048,10.95c3.361,2.725,7.76,4.081,13.203,4.081h1.932c2.579,0,4.972-0.465,7.196-1.394
		c2.213-0.929,4.149-2.222,5.792-3.862c1.645-1.648,2.969-3.581,3.977-5.803c0.996-2.213,1.503-4.618,1.503-7.197V123.651z"/>
	<path fill="#3F43AD" d="M523.664,78.35c-0.073,0.429-0.183,0.929-0.317,1.502L487.915,190.43
		c-2.437,7.733-5.834,14.312-10.198,19.759c-4.368,5.438-10.49,8.727-18.36,9.875c-0.286,0.137-0.72,0.209-1.288,0.209
		c-2.291,0-4.186-0.784-5.688-2.359c-1.504-1.576-2.256-3.581-2.256-6.012c0-1.858,0.57-3.58,1.717-5.155
		c1.145-1.577,2.934-2.507,5.371-2.789c3.005-0.428,5.757-1.93,8.267-4.509c2.5-2.578,4.827-7.233,6.979-13.955l7.515-23.621
		l-28.558-82.021c-0.292-0.429-0.428-0.855-0.428-1.294c0-0.564,0-1.065,0-1.502c0-2.14,0.784-3.998,2.358-5.575
		c1.577-1.576,3.576-2.369,6.013-2.369c1.577,0,3.038,0.428,4.404,1.294c1.357,0.855,2.391,2.286,3.113,4.29l21.256,61.197
		l19.539-61.197c0.714-2.003,1.752-3.434,3.115-4.29c1.357-0.866,2.824-1.294,4.4-1.294c2.432,0,4.472,0.793,6.12,2.369
		c1.646,1.577,2.469,3.435,2.469,5.575C523.772,77.493,523.737,77.921,523.664,78.35z"/>
	<path fill="#3F43AD" d="M671.281,173.15c-1.718,1.358-3.582,2.032-5.584,2.032c-2.005,0-3.863-0.674-5.584-2.032
		c-1.717-1.366-2.574-3.407-2.574-6.121v-63.556c0-6.013-1.685-10.521-5.047-13.527c-3.365-3.005-7.767-4.51-13.203-4.51h-1.937
		c-5.151,0-9.519,1.749-13.094,5.257c-3.579,3.507-5.37,7.916-5.37,13.208v62.7c0,2.859-0.856,5.01-2.578,6.439
		c-1.717,1.43-3.579,2.142-5.579,2.142c-2.008,0-3.867-0.712-5.584-2.142c-1.718-1.43-2.578-3.58-2.578-6.439v-62.7
		c0-5.438-1.791-9.875-5.365-13.317c-3.581-3.435-7.947-5.148-13.1-5.148h-1.932c-4.868,0-9.165,1.504-12.885,4.51
		c-3.723,3.006-5.584,7.014-5.584,12.024v65.059c0,2.714-0.857,4.755-2.573,6.121c-1.717,1.358-3.581,2.032-5.585,2.032
		s-3.862-0.674-5.584-2.032c-1.716-1.366-2.572-3.407-2.572-6.121V77.274c0-2.578,0.856-4.582,2.572-6.012
		c1.722-1.43,3.652-2.15,5.799-2.15c1.717,0,3.36,0.538,4.941,1.613c1.572,1.074,2.573,2.687,3.002,4.828
		c2.004-1.995,4.649-3.572,7.947-4.719c3.289-1.147,6.796-1.723,10.521-1.723h1.932c5.438,0,10.413,1.112,14.921,3.335
		c4.509,2.213,8.408,5.183,11.706,8.909c3.287-3.726,7.19-6.696,11.7-8.909c4.508-2.223,9.482-3.335,14.921-3.335h1.937
		c4.577,0,8.94,0.684,13.095,2.041c4.147,1.367,7.838,3.435,11.057,6.231c3.221,2.787,5.763,6.368,7.627,10.732
		c1.857,4.372,2.792,9.482,2.792,15.358v63.556C673.859,169.743,672.997,171.784,671.281,173.15z"/>
	<path fill="#3F43AD" d="M719.801,43.242c-1.717,1.357-3.579,2.04-5.578,2.04c-2.009,0-3.867-0.683-5.584-2.04
		c-1.717-1.357-2.579-3.397-2.579-6.122v-4.718c0-2.724,0.862-4.764,2.579-6.121s3.575-2.041,5.584-2.041
		c1.999,0,3.861,0.684,5.578,2.041c1.719,1.357,2.58,3.397,2.58,6.121v4.718C722.381,39.845,721.52,41.885,719.801,43.242z
		 M719.801,173.15c-1.717,1.358-3.579,2.032-5.578,2.032c-2.009,0-3.867-0.674-5.584-2.032c-1.717-1.366-2.579-3.407-2.579-6.121
		V77.274c0-2.714,0.862-4.755,2.579-6.122c1.717-1.356,3.575-2.041,5.584-2.041c1.999,0,3.861,0.684,5.578,2.041
		c1.719,1.367,2.58,3.408,2.58,6.122v89.755C722.381,169.743,721.52,171.784,719.801,173.15z"/>
	<path fill="#3F43AD" d="M823.509,173.041c-1.72,1.43-3.582,2.142-5.585,2.142c-1.863,0-3.581-0.538-5.153-1.604
		c-1.574-1.077-2.577-2.688-3.005-4.837c-2.008,2.013-4.655,3.58-7.944,4.728c-3.297,1.139-6.805,1.713-10.521,1.713h-1.936
		c-4.582,0-8.983-0.674-13.204-2.032c-4.222-1.366-7.911-3.47-11.059-6.341c-3.147-2.859-5.656-6.476-7.514-10.839
		c-1.864-4.363-2.793-9.483-2.793-15.359V77.274c0-2.714,0.859-4.755,2.579-6.122c1.715-1.356,3.573-2.041,5.582-2.041
		c2.004,0,3.863,0.684,5.583,2.041c1.718,1.367,2.574,3.408,2.574,6.122v63.337c0,5.02,1.788,9.311,5.37,12.891
		c3.575,3.58,7.87,5.365,12.881,5.365h1.936c5.151,0,9.514-1.785,13.093-5.365c3.577-3.58,5.372-7.871,5.372-12.891V77.274
		c0-2.714,0.855-4.755,2.577-6.122c1.719-1.356,3.575-2.041,5.581-2.041c2.003,0,3.865,0.684,5.585,2.041
		c1.715,1.367,2.576,3.408,2.576,6.122v89.755C826.085,169.607,825.224,171.611,823.509,173.041z"/>
	<path fill="#3F43AD" d="M981.321,173.15c-1.713,1.358-3.588,2.032-5.574,2.032c-2.023,0-3.881-0.674-5.594-2.032
		c-1.713-1.366-2.568-3.407-2.568-6.121v-63.556c0-6.013-1.693-10.521-5.046-13.527c-3.372-3.005-7.778-4.51-13.21-4.51h-1.93
		c-5.157,0-9.529,1.749-13.101,5.257c-3.589,3.507-5.374,7.916-5.374,13.208v62.7c0,2.859-0.856,5.01-2.57,6.439
		c-1.71,1.43-3.588,2.142-5.592,2.142s-3.862-0.712-5.575-2.142c-1.711-1.43-2.567-3.58-2.567-6.439v-62.7
		c0-5.438-1.805-9.875-5.375-13.317c-3.59-3.435-7.945-5.148-13.101-5.148h-1.931c-4.864,0-9.163,1.504-12.88,4.51
		c-3.736,3.006-5.594,7.014-5.594,12.024v65.059c0,2.714-0.855,4.755-2.569,6.121c-1.711,1.358-3.58,2.032-5.584,2.032
		c-2.002,0-3.86-0.674-5.584-2.032c-1.716-1.366-2.573-3.407-2.573-6.121V77.274c0-2.578,0.857-4.582,2.573-6.012
		c1.724-1.43,3.653-2.15,5.794-2.15c1.722,0,3.372,0.538,4.938,1.613c1.584,1.074,2.588,2.687,3.006,4.828
		c2.004-1.995,4.664-3.572,7.942-4.719c3.297-1.147,6.815-1.723,10.531-1.723h1.931c5.449,0,10.422,1.112,14.922,3.335
		c4.518,2.213,8.417,5.183,11.696,8.909c3.298-3.726,7.196-6.696,11.715-8.909c4.5-2.223,9.473-3.335,14.922-3.335h1.93
		c4.574,0,8.946,0.684,13.1,2.041c4.153,1.367,7.834,3.435,11.059,6.231c3.225,2.787,5.757,6.368,7.615,10.732
		c1.858,4.372,2.788,9.482,2.788,15.358v63.556C983.891,169.743,983.034,171.784,981.321,173.15z"/>
</g>
</svg>
