<svg width="134" height="72" viewBox="0 0 134 72" fill="none" xmlns="http://www.w3.org/2000/svg">
<g clip-path="url(#clip0_186_1750)">
<path fill-rule="evenodd" clip-rule="evenodd" d="M37.6731 0H54.9796L66.7587 12.7977L78.3779 0H96.3274L80.7527 16.727C76.8996 20.865 69.6741 20.8717 65.8112 16.7408L65.3815 16.2814L53.2696 3.12205H45.1029L60.4331 19.7729C57.9512 20.1186 55.4474 19.2766 53.8699 17.5659L37.6731 0ZM69.0904 15.2511C71.6063 17.3534 75.7193 17.1873 77.9833 14.756L88.8158 3.12205H80.1025L69.0904 15.2511Z" fill="url(#paint0_linear_186_1750)"/>
<path fill-rule="evenodd" clip-rule="evenodd" d="M96.3269 43.0564H79.0207L67.2415 30.2589L55.6224 43.0564H37.6726L53.2476 26.3295C57.1005 22.1914 64.326 22.1848 68.1891 26.3156L68.6187 26.7751L80.7307 39.9344H88.8971L73.567 23.2835C76.0491 22.9378 78.5529 23.7798 80.1301 25.4906L96.3269 43.0564ZM64.9099 27.8053C62.3937 25.703 58.2807 25.8692 56.0168 28.3005L45.1842 39.9344H53.8976L64.9099 27.8053Z" fill="url(#paint1_linear_186_1750)"/>
<path d="M0 66.8592C0 70.8725 3.38541 71.8461 9.06737 71.8461C14.195 71.8461 17.6992 71.0909 17.6992 67.3758C17.6992 63.8593 14.3138 63.5613 8.8496 63.2632C4.81086 63.0247 3.97935 62.8262 3.97935 61.7534C3.97935 60.7203 4.81086 60.3825 8.31506 60.3825C12.0172 60.3825 13.3634 60.4818 13.3634 62.0115L17.1053 62.2897C17.1053 58.8526 13.9376 57.5415 8.71103 57.5415C3.52401 57.5415 0.415753 58.5148 0.415753 61.5745C0.415753 64.6937 2.81128 65.6474 8.8496 65.9256C13.3437 66.1439 14.1356 66.3427 14.1356 67.495C14.1356 68.5876 13.0071 69.0048 9.26536 69.0048C4.75147 69.0048 3.56359 68.846 3.56359 67.3758L0 66.8592Z" fill="black"/>
<path d="M27.2908 71.8461C33.3687 71.8461 36.0018 69.283 36.0018 64.6738C36.0018 60.0845 33.3687 57.5415 27.2908 57.5415C21.1931 57.5415 18.5798 60.0646 18.5798 64.6738C18.5798 69.3029 21.1931 71.8461 27.2908 71.8461ZM27.2908 68.846C23.5887 68.846 22.1434 67.5347 22.1434 64.6738C22.1434 61.8328 23.5689 60.5413 27.2908 60.5413C31.0128 60.5413 32.4384 61.8527 32.4384 64.6738C32.4384 67.5148 30.993 68.846 27.2908 68.846Z" fill="black"/>
<path d="M40.8632 68.6474V57.7402H37.2996V71.6475H51.5539V68.6474H40.8632Z" fill="black"/>
<path d="M56.5041 57.7402H52.9404V71.6475H56.5041V57.7402Z" fill="black"/>
<path d="M68.1404 57.7402H58.0833V71.6475H68.1404C71.7238 71.6475 74.8716 69.4224 74.8716 64.6939C74.8716 59.9655 71.7238 57.7402 68.1404 57.7402ZM66.7942 68.6474H61.6469V60.7403H66.7942C69.4866 60.7403 71.308 61.3163 71.308 64.6939C71.308 68.0714 69.4866 68.6474 66.7942 68.6474Z" fill="black"/>
<path d="M94.2327 66.8592C94.2327 70.8725 97.618 71.8461 103.3 71.8461C108.428 71.8461 111.932 71.0909 111.932 67.3758C111.932 63.8593 108.546 63.5613 103.082 63.2632C99.0435 63.0247 98.2119 62.8262 98.2119 61.7534C98.2119 60.7203 99.0436 60.3825 102.548 60.3825C106.25 60.3825 107.798 60.4818 107.798 62.0115L111.338 62.2897C111.338 58.8526 108.17 57.5415 102.944 57.5415C97.7565 57.5415 94.6483 58.5148 94.6483 61.5745C94.6483 64.6937 97.0438 65.6474 103.082 65.9256C107.576 66.1439 108.368 66.3427 108.368 67.495C108.368 68.5876 107.24 69.0048 103.498 69.0048C98.9839 69.0048 97.9985 68.846 97.9985 67.3758L94.2327 66.8592Z" fill="black"/>
<path d="M113.093 71.6475H118.003L123.309 66.8792L128.595 71.6475H133.524L125.724 64.6939L123.309 62.5085L118.003 57.7402H113.093L120.894 64.6939L113.093 71.6475Z" fill="#CF2D23"/>
<path d="M119.764 65.7272C121.787 66.5544 124.101 66.1827 125.766 64.7632L134 57.7402H129.07L119.764 65.7272Z" fill="#CF2D23"/>
<path d="M76.3323 57.895V65.5055C76.3323 70.0204 79.5595 71.8936 84.5282 71.8936C89.3577 71.8936 92.7475 70.0204 92.7475 65.5055V57.895H89.1719V65.3476C89.1719 67.753 87.8253 69.3698 84.5282 69.3698C81.0688 69.3698 79.9078 67.7136 79.9078 65.3476V57.895H76.3323Z" fill="black"/>
</g>
<defs>
<linearGradient id="paint0_linear_186_1750" x1="67.0568" y1="1.28667" x2="68.4647" y2="36.6278" gradientUnits="userSpaceOnUse">
<stop stop-color="#FC483F"/>
<stop offset="0.4475" stop-color="#DB3728"/>
<stop offset="1" stop-color="#C92F27"/>
</linearGradient>
<linearGradient id="paint1_linear_186_1750" x1="69.2382" y1="65.1466" x2="69.1926" y2="23.2071" gradientUnits="userSpaceOnUse">
<stop offset="0.301648" stop-color="#DD2817"/>
<stop offset="0.667525" stop-color="#C92F27"/>
<stop offset="1" stop-color="#DC3829"/>
</linearGradient>
<clipPath id="clip0_186_1750">
<rect width="134" height="72" fill="white"/>
</clipPath>
</defs>
</svg>
